<?xml version="1.0" encoding="utf-8"?>
<!-- Generator: Adobe Illustrator 12.0.0, SVG Export Plug-In . SVG Version: 6.00 Build 51448)  -->
<!DOCTYPE svg PUBLIC "-//W3C//DTD SVG 1.1 Tiny//EN" "http://www.w3.org/Graphics/SVG/1.1/DTD/svg11-tiny.dtd" [
	<!ENTITY ns_svg "http://www.w3.org/2000/svg">
	<!ENTITY ns_xlink "http://www.w3.org/1999/xlink">
]>
<svg  version="1.1" baseProfile="tiny" id="Layer_1" xmlns="&ns_svg;" xmlns:xlink="&ns_xlink;" width="561.974" height="561.93"
	 viewBox="0 0 561.974 561.93" xml:space="preserve">
<g>
	<g>
		<path fill-rule="evenodd" d="M1.044,0c186.976,0,373.954,0,560.93,0c0,187.31,0,374.62,0,561.93c-187.31,0-374.62,0-561.93,0
			c0-186.31,0-372.62,0-558.93C-0.042,1.581-0.121,0.168,1.044,0z M268.01,84.989c-2.885-8.78,0.886-24.216-2-32.996
			c-9.187,9.651,6.303,37.985-7.999,44.994c-8.26-10.595,9.578-31.508,1-41.995c-6.178,1.821-0.287,15.711-6,17.998
			c-1.457-4.876,0.638-13.303-3-15.998c-5.235,9.116,2.764,25.265,0,34.996c-10.894-3.926,2.835-30.118-6.999-32.996
			c-2.897,5.435,0.867,17.532-2,22.997c-9.95-4.048-10.713-17.284-20.997-20.998c3.268,9.041,9.864,16.078,15.998,22.997
			c6.023,6.794,15.02,12.041,16.998,19.998c-19.971-6.692-26.576-26.75-40.995-38.995c4.658,17.674,23.673,29.652,34.996,43.995
			c-11.516-2.64-20.411-12.895-27.997-21.997c-4.692-5.631-6.741-13.656-12.999-16.998c-4.021,1.874,4.021,5.126,0,6.999
			c-2.382-0.618-1.642-4.357-5.999-3c8.634,18.696,22.091,32.568,35.996,45.994c-9.579,11.086-14.069,27.259-18.998,42.995
			c-7.621-2.378-13.327-6.67-18.998-10.999c3.07-19.794,0.321-44.447-3-57.993c-1.79-7.301,0.458-16.363-5-20.998
			c-0.466,17.449,5,36.091,5,57.993c0,6.503,2.455,15.803-3,19.998c-5.392-3.037-3-11.449-3-16.998
			c0-23.145-1.804-45.586-7.999-59.993c-1.711,22.403,8.068,47.237,3,72.991c-1.881-24.116-4.724-47.27-8.999-68.991
			c-3.794,12.082,1.001,27.359,2,41.995c0.675,9.903,5.399,22.402-1,28.997c-8.007-17.99-1.474-50.52-9.999-67.992
			c-3.642,7.786,1.675,20.135,0,25.997c-10.775,0.11-11.37-9.961-15.998-15.998c-6.52,17.299,19.142,16.072,16.998,28.996
			c-13.168-3.83-20.2-13.795-24.997-25.997c-3.006,1.326-0.74,7.926-3,9.999c0.081-3.747,0.758-8.09-4-6.999
			c0.694,13.727,12.183,25.794,22.998,32.996c3.728,2.482,11.616,1.88,9.999,8.999c-8.721-1.277-13.048-6.949-19.998-9.999
			c-2.562-4.842-6.826-8.565-9.999-12.999c-3.371-4.71-4.767-10.983-9.999-13.998c3.145,14.656,15.746,30.105,27.997,36.995
			c4.651,2.616,13.146,1.721,13.998,8.999c-5.778,4.887-17.958,3.372-24.997,6.999c-5.416-16.915-8.642-36.019-21.998-44.994
			c4.878,14.619,21.284,32.018,13.999,48.994c-6.648-15.683-8.98-35.681-21.997-44.994c2.025,13.088,18.924,30.27,14.998,45.994
			c-8.609-12.055-10.577-30.751-21.998-39.995c-0.379,6.53,6.032,15.256,9.999,23.997c3.04,6.698,12.632,20.083,1,22.997
			c-5.261-10.041-7.695-19.631-11.999-28.996c-2.368-5.154-4.426-10.974-7.999-14.999c-3.737,11.849,7.273,17.308,7.999,27.997
			c-11.511-4.487-17.959-14.037-29.997-17.998c7.38,14.975,33.208,16.753,34.996,33.996c-16.503-6.185-28.1-22.528-41.995-27.997
			c7.435,14.231,28.63,20.028,34.996,31.996c-13.9-4.466-26.718-18.583-40.995-25.997c2.118,11.96,25.554,16.36,28.996,26.997
			c-15.729-1.935-21.262-14.067-32.996-19.998c0.312,9.687,10.759,9.238,12.998,16.998c-4.995,1.704-9.128-5.468-9.999,1
			c39.447,21.783,71.229-11.898,98.988-15.998c18.822-2.78,38.068,0.998,47.994,11.999c-15.359-4.479-27.285-11.444-44.994-8.999
			c-22.259,3.073-38.122,25.309-63.992,26.997c-15.304,0.998-27.648-3.738-44.994-8.999c9.191,13.139,32.678,11.983,54.993,11.999
			c9.558-2.773,18.011-6.652,25.997-10.999c-12.617,21.503-61.692,16.443-84.989,7.999c11.215,9.765,28.851,12.314,42.995,11.999
			c6.742-0.151,16.03-1.406,22.997-3c24.46-5.595,29.17-28.164,61.992-23.997c12.963,1.645,28.324,6.637,34.996,16.998
			c-14.545-6.075-28.312-14.944-44.995-13.998c-27.924,1.583-33.121,24.746-58.992,28.997c-3.93,0.646-9.24,1.01-13.999,1
			c-21.258-0.046-37.204-9.042-51.994-7.999c18.379,9.833,50.082,14.012,76.991,8.999c1.642,7.024,4.527,12.804,5.999,19.998
			c-24.483,26.379-66.18-6.172-87.989-17.998c4.116,7.782,15.544,13.153,25.997,18.998c10.329,5.775,21.437,11.716,32.996,12.998
			c16.71,1.854,22.685-5.81,32.996-6.999c-7.191,18.386-35.697,14.11-51.993,7.999c-7.806-2.927-16.356-8.466-23.997-12.999
			c-7.596-4.506-16.235-11.685-21.998-10.999c14.08,11.91,41.065,29.793,66.992,32.996c4.656,0.575,11.159,0.841,15.998,0
			c7.428-1.291,11.605-8.349,18.998-7.999c-0.371,13.774-23.373,15.011-37.995,12.999c-19.504-2.685-42.221-15.594-55.993-24.997
			c-5.768-3.938-11.697-9.829-17.998-4c14.254,17.075,35.766,26.893,57.993,35.996c5.454-0.455,9.574,0.424,10.999,4
			c-0.652,5.681-2.166,10.499-6.999,11.999c-24.812-2.519-30.544-24.116-47.994-33.996c-0.78,12.454,22.13,15.19,20.998,27.997
			c-10.659-5.672-15.646-17.016-26.997-21.997c1.643,10.099,19.389,13.375,15.998,21.997c-9.376-2.368-12.021-16.536-20.998-15.998
			c1.152,6.527,12.097,8.549,9.999,14.998c-7.793-1.872-8.631-10.7-16.998-11.999c-2.499,5.192,8.501,5.477,7.999,11.999
			c-2.832,2.834-12.918-1.586-12.999,4c4.076,5.811,16.126-2.223,19.998,3c-2.425,4.907-16.331-1.667-16.998,4.999
			c17.539,1.553,49.119-6.158,60.993,5.999c-2.274,5.564-7.974,0.792-12.999,0c-13.794-2.174-35.349-1.704-45.994,3
			c10.57,4.747,41.597-6.853,49.994,4.999c-13.161,1.636-36.15-2.72-45.994,5c7.408,4.132,23.815-4.643,34.996,0
			c-4.831,7.501-20.129,4.534-27.997,8.999c29.327,4.284,51.888-15.403,63.992-34.996c0.944-5.357,2.052-13.719,8.999-9.999
			c-7.182,26.072-29.115,45.666-57.993,49.994c-4.575,0.686-12.643-2.363-15.998,3c31.183,2.509,63.936-15.33,74.991-39.996
			c2.048-4.569-0.313-11.165,6.999-12.998c-5.951,42.375-42.728,53.926-83.989,60.993c49.056,2.388,78.88-23.102,90.989-60.993
			c3.575,6.874-2.17,15.249-5,20.998c-15.295,31.07-48.752,42.655-86.989,48.993c18.035,2.107,32.627-2.642,45.994-7.999
			c9.952-3.987,18.606-13.53,25.997-14.998c8.392-1.666,19.082,1.742,27.997,1c30.168-2.512,48.853-24.424,72.991-26.996
			c22.11-2.357,38.225,15.55,40.995,30.996c2.322,12.944,0,29.563,0,44.994c0,35.983,0,76.096,0,112.985
			c0,6.837-2.407,17.99,3,19.998c2.26-50.512,3.326-107.773,1-158.98c-0.326-7.168,1.427-15.275,0-21.997
			c-3.434-16.174-20.66-30.541-35.996-31.996c-40.427-3.836-58.272,37.815-103.987,25.997c2.283-9.46,12.352-3.902,20.998-5
			c3.949-0.501,9.294-1.8,13.998-2.999c19.371-4.94,38.971-21.141,57.993-22.997c27.351-2.669,49.198,15.294,52.994,38.995
			c3.094,19.322-1.026,42.946,0,64.992c1.514,32.545,0,60.833,0,93.987c0,6.956-2.463,17.596,3,19.998
			c2.868-53.261-0.788-125.333,2-179.978c-9.094-20.479-20.933-39.003-44.994-41.995c-36.59-4.549-61.032,32.975-96.988,23.997
			c8.619-4.779,17.694-3.216,26.997-5.999c17.254-5.162,33.106-16.289,48.994-20.998c32.313-9.576,62.994,11.3,66.992,40.995
			c7.542,56.027-4.44,126.704,2,183.978c3.642-28.807,2-60.056,2-90.988c0-31.939,4.111-65.557,0-93.988
			c-4.055-28.043-30.445-50.195-62.992-45.995c-12.248,1.581-22.161,9.228-30.996,12.999c-14.693,6.271-33.425,13.823-48.994,11.998
			c26.407-9.254,54.979-16.345,78.99-27.996c29.546-4.234,46.601,8.055,57.993,23.997c15.679,21.94,11.097,64.13,10.999,104.986
			c-0.094,39.063,0.407,77.994,2,104.987c3.589-28.149,2-65.214,2-102.987c0-36.535,2.828-74.634,0-104.986
			c-3.104-33.316-20.961-60.177-43.995-67.992c-23.402-7.94-44.026,2.797-62.992,5c15.085-10.229,32.766-14.309,51.994-11.999
			c28.922,3.476,55.604,38.737,58.993,64.992c2.768,21.448,0,44.437,0,67.991c0,45.642,0.259,99.574,1,137.982
			c0.06,3.094-3.083,10.795,2,11.999c2.837-62.737,3.018-150.734,2-211.974c-0.096-5.771-1.469-12.282-3-15.998
			c-13.105-31.808-36.137-63.898-80.99-58.993c-13.674,1.496-25.249,10.045-34.996,8.999c27.21-20.388,68.999-17.968,91.989,4
			c11.666,11.147,28.613,39.176,30.996,56.993c1.857,13.891,0,29.623,0,44.995c0,56.754,1.29,121.834,2,171.979
			c2.669-44.198,3.025-80.768,2.999-115.985c-0.016-21.538-4.848-50.414,0-68.991c12.262-46.986,63.57-56.207,74.991-100.988
			c6.506-25.51-2.943-48.989-11.999-62.992c-4.338-6.708-11.375-13.277-11.998-21.997c15.373,10.759,27.867,32.732,29.996,56.993
			c1.225,13.964-4.641,26.228-5.999,39.995c-7.772,11.782-11.41,22.137-20.998,32.996c-17.04,19.3-46.354,30.036-49.993,58.992
			c-3.646,29.02,0,61.596,0,91.988c0,23.874,0,46.923,0,68.992c0,7.373-2.417,18.65,2.999,20.997
			c5.977-61.101-4.582-126.409,1-181.978c2.771-27.578,33.554-39.616,47.994-54.993c12.607-13.425,25.26-34.703,27.996-58.992
			c2.557-22.688-3.044-40.843-9.998-53.994c-4.602-8.701-13.307-14.419-14.998-23.997c12.866,10.879,23.567,28.01,27.996,44.994
			c10.027,38.45-10.276,70.66-25.997,89.989c-13.769,16.929-33.788,26.627-42.994,45.995c-7.365,15.494-6.688,40.256-5.999,60.992
			c1.284,38.709-1.559,85.371,0,121.984c0.11,2.61-2.46,9.516,2.999,9.999c3.621-35.924-0.85-79.218,1-118.985
			c1.045-22.461-3.759-45.683,2-63.992c8.011-25.472,37.168-47.653,63.992-53.993c37.717-8.915,67.721,7.721,90.988,20.998
			c18.119,10.339,30.159,23.753,51.993,26.997c11.044,1.641,23.094,3.188,28.997-2c-43.343,4.514-58.166-18.433-81.99-30.996
			c-12.371-6.523-26.124-13.53-39.995-17.998c-20.587-6.632-48.074-1.312-65.991,3c1.191-5.474,5.143-8.188,7.999-11.998
			c32.899-2.745,56.382,3.452,77.99,11.998c33.357,13.194,56.355,48.063,99.987,37.995c-19.351-3.313-43.9-1.427-51.993-15.998
			c2.05-2.949,4.443-5.555,7.998-6.999c13.306,6.692,26.71,13.286,47.994,11.999c-2.517-4.792-9.464-3.453-12.998-4
			c-22.844-3.536-40.68-13.11-52.993-25.997c-8.142-8.52-15.775-20.817-16.998-33.996c8.168,1.739,8.288,12.08,11.998,17.998
			c13.328,21.257,38.251,39.756,70.991,36.996c-3.118-5.835-12.384-2.333-16.997-3c-13.4-1.938-29.068-11.224-37.996-19.998
			c-8.454-8.309-17.014-20.521-16.997-31.996c9.563,9.204,14.075,24.533,25.996,33.996c5.802,4.605,15.856,9.95,22.997,11.999
			c4.103,1.177,22.379,4.607,23.997-1c-26.456,1.363-44.521-12.008-55.993-27.996c-3.573-4.981-9.745-10.445-7.999-16.998
			c10.805,4.552,11.278,18.057,18.998,25.997c4.776,4.913,10.262,6.403,15.998,10.999c9.205-0.962,22.439,8.09,28.996,0
			c-9.46-2.205-23.295-0.035-28.996-5.999c4.314-11.729,22.506-14.762,25.997-23.997c-7.115,1.55-12.511,5.941-17.998,9.999
			c-5.093,3.767-9.625,11.758-16.998,9.999c6.556-13.441,23.394-16.602,31.996-27.997c-16.058,3.058-24.973,19.909-37.995,21.998
			c7.594-14.07,26.121-17.207,35.995-28.997c-14.556,1.15-25.779,19.515-39.995,20.998c6.174-15.491,29.406-13.922,34.996-29.997
			c-9.805,4.626-14.631,12.94-26.997,13.999c-19.026,1.628-45.94-1.724-67.991-5c-22.011-3.27-36.101,5.663-51.993,5
			c3.984-7.658,15.395-10.001,23.997-10.999c18.087-2.099,39.063,3.893,58.992,5.999c20.838,2.202,46.2,2.158,50.994-8.999
			c-33.294,16.268-80.565-6.173-114.986,0c-5.694,1.021-9.707,6.343-15.998,1c28.597-20.193,71.131,3.023,103.987,1
			c8.612-0.53,24.981-3.041,25.997-10.999c-26.539,18.422-65.196-4.136-96.988-3c-11.819,0.423-19.318,5.145-30.996,6
			c3.864-11.222,18.634-12.96,28.996-12.999c30.854-0.113,72.941,23.776,96.988,1c-7.805,0.112-39.778,14.654-41.995-4
			c9.448-8.883,36.688,0.025,43.995-10.999c-9.67-1.757-26.644,7.733-37.995,1c9.817-2.1,30.64-0.267,35.995-9.999
			c-25.609,7.898-80.679,15.53-89.989-11.999c10.064,2.937,20.24,12.36,34.996,13.998c19.169,2.128,40.434-0.036,48.994-11.998
			c-14.656,6.561-38.845,11.618-56.993,6.999c-7.855-2-20.157-7.579-19.997-15.998c17.084,13.28,56.147,16.359,74.99,2
			c-7.083-1.507-19.942,7.526-26.997,3c2.237-9.095,7.71-14.955,9.999-23.997c-13.204,2.127-6.83,23.833-19.997,25.997
			c0.16-11.583,9.424-19.133,9.998-26.997c-4.493,3.771-6.858-1.734-9.998,0c-8.365,4.619-5.933,23.169-14.998,24.997
			c0.749-11.325,9.397-19.831,9.998-27.997c-10.28,4.05-9.164,19.498-15.998,26.997c-5.323-2.342-10.866-4.465-12.998-9.999
			c5.454-12.912,17.34-24.608,18.998-37.996c-7.896,3.436-7.375,15.289-14.998,18.998c0.116-8.882,6.696-11.3,6.999-19.998
			c-8.757,6.372-11.455,18.338-16.998,27.997c-9.753,16.993-21.296,34.061-42.995,34.996c1.268-6.443,8.984-6.314,12.999-8.999
			c19.329-12.926,32.384-33.765,39.995-57.993c-7.139,4.137-8.556,14.508-12.999,21.998c-4.485,7.561-9.299,15.785-15.998,17.998
			c7.145-13.187,14.124-26.537,19.998-40.995c-16.988,11.721-19.813,56.791-49.994,51.993c9.22-20.444,28.046-31.28,37.995-50.994
			c-1.752-0.914-3.474-1.858-2.999-4.999c-9.353,5.813-21.34,16.31-29.997,26.997c-4.258,5.256-5.59,13.919-11.998,14.998
			c3.329-11.684,10.558-20.375,17.998-27.997c7.122-7.296,17.745-11.956,21.997-21.997c-12.845,6.978-23.298,17.445-31.996,27.997
			c-4.068,4.934-6.933,13.897-13.998,13.998c8.036-21.626,30.317-29.008,41.994-46.994c-19.355,10.307-32.663,26.662-46.994,41.995
			c-0.622-2.71-4.177-2.488-3.999-5.999c10.415-12.249,25.264-20.064,32.996-34.996c-19.139,10.184-30.795,35.548-53.993,42.995
			c-5.635,1.809-12,0.93-16.998,3c-12.696,5.256-17.315,17.957-29.996,21.997c22.4-31.926,74.944-33.708,90.988-71.991
			c-14.172,11.591-26.442,26.167-43.994,35.996c-8.807,4.931-18.37,7.771-26.997,12.998c-8.297,5.028-14.564,11.484-22.997,14.999
			c15.814-25.171,51.346-34.742,72.991-51.994c5.948-4.741,14.228-9.315,14.998-16.998c-8.702,6.49-15.663,13.625-24.997,19.998
			c-9.344,6.38-20.117,9.466-29.996,14.998c-14.338,8.028-24.427,21.269-36.995,27.997c15.123-35.203,67.214-33.44,83.989-66.992
			c-9.835,3.164-12.127,13.87-22.997,15.998c-2.667-5.989,2.398-12.346-3-15.998c-3.805,4.527,2.929,19.593-3.999,20.998
			c-5.207-3.458,1.286-18.617-4-21.998c-5.608,5.516,1.478,22.757-2.999,26.997c-8.723-2.277-1.739-20.259-7-25.997
			c-5.418,7.186,0.645,22.57,0,27.997c-10.363-2.17,3.412-28.415-6.999-27.997c-1.957,8.634-1.575,23.564,1,30.996
			c-7.393,4.077-14.958,9.085-21.997,14.998c-6.479,5.442-11.986,15.975-19.998,13.999c1.589-8.724,11.165-14.857,16.998-22.997
			c9.043-12.619,19.84-31.597,14.998-49.994c-5.261,34.733-22.538,57.451-44.994,74.99c15.064-20.958,40.205-42.415,36.995-74.99
			c-5.825,24.946-15.262,44.1-28.996,59.992c-6.686,7.737-16.733,13.432-22.997,22.997c-9.533,14.557-14.708,33.211-16.998,53.993
			c-0.582,5.278,2.229,9.942-3,13.999c-3.989-29.404,6.378-60.653,20.998-76.991c9.109-10.179,20.691-17.213,28.997-28.996
			c8.131-11.536,13.559-25.282,14.998-43.995c-4.814,3.184-5.849,10.149-5.999,17.998c-5.832,23.784-24.744,35.161-39.995,50.994
			c-17.915,18.598-20.644,46.086-26.997,77.99c-3.042-31.108,2.488-56.167,18.998-74.991c19.546-22.287,45.958-36.847,46.994-72.991
			c-1,0-1.999,0-2.999,0C280.866,63.183,278.033,77.681,268.01,84.989z M465.985,288.964c-13.684-9.382-27.419-22.994-43.994-26.997
			c-17.919-4.328-47.198-5.686-62.992,0c-14.682,5.286-47.152,39.012-49.994,53.994c-2.362,12.459,0,28.807,0,43.994
			c0,45.112-1.634,92.448,2,132.983c1.82-40.783,1-87.76,1-129.983c0-15.023-2.426-31.426,0-43.995
			c1.814-9.403,12.565-19.724,19.998-27.996c13.766-15.322,27.443-31.485,54.992-26.997c-32.117,5.173-59.124,27.119-68.991,54.993
			c-7.81,22.063-1,61.564-1,89.989c0,22.342-0.999,43.662-0.999,64.991c0,5.981-2.808,15.535,3.999,18.998
			c0.275-36.978,1.65-78.392,1-118.985c-0.269-16.737-4.472-37.675,0-52.993c3.294-11.284,17.728-27.507,27.996-36.995
			c9.032-8.346,22.287-14.428,36.996-14.999c55.387-2.15,71.17,40.102,115.985,49.994c12.005,2.65,31.701,5.67,41.994,0
			c-64.897,4.693-89.312-39.184-137.982-53.993c41.215,2.413,59.793,34.492,93.988,44.994c12.229,3.756,32.63,6.307,40.995,1
			C507.371,310.904,485.979,302.672,465.985,288.964z"/>
		<path fill-rule="evenodd" d="M208.018,78.99c5.685,5.631,11.143,12.645,16.998,18.998c5.618,6.095,13.404,10.626,15.998,16.998
			C224.578,108.424,215.775,94.23,208.018,78.99z"/>
		<path fill-rule="evenodd" d="M410.992,97.988c-8.377,11.287-17.484,21.843-26.996,31.996
			C386.548,117.531,401.311,103.31,410.992,97.988z"/>
		<path fill-rule="evenodd" d="M141.026,104.987c7.168,9.829,20.107,13.888,26.997,23.997
			C156.668,127.282,146.421,115.967,141.026,104.987z"/>
		<path fill-rule="evenodd" d="M354,113.986c35.093,17.302,43.387,96.88,11.998,124.984c8.454-19.112,17.838-38.636,14.998-64.992
			c-2.485-23.071-17.673-41.525-26.996-55.993C352.334,115.999,354.09,116.714,354,113.986z"/>
		<path fill-rule="evenodd" d="M439.989,121.985C436.855,118.688,442.451,115.769,439.989,121.985L439.989,121.985z"/>
		<path fill-rule="evenodd" d="M271.01,123.984c16.954,7.065,23.039,30.259,21.997,51.994c-6.599-2.676-4.087-11.766-4.999-16.998
			C285.477,144.455,277.853,133.674,271.01,123.984z"/>
		<path fill-rule="evenodd" d="M353,155.98c-13.411,12.586-33.058,18.936-44.994,32.996c-8.125-2.859-9.116-8.187-9.999-20.998
			c-0.448-6.502-3.365-13.34-3-15.998c1.246-9.068,25.326-29.578,34.996-27.997C339.851,125.595,347.798,148.158,353,155.98z"/>
		<path fill-rule="evenodd" d="M471.985,127.984C472.558,123.973,471.14,133.898,471.985,127.984L471.985,127.984z"/>
		<path fill-rule="evenodd" d="M284.009,171.979c-6.995-2.191-3.913-9.844-5-14.998c-2.392-11.344-10.276-18.579-14.999-26.997
			c0.804-0.529,1.624-1.043,3-1C278.792,136.565,286.578,153.367,284.009,171.979z"/>
		<path fill-rule="evenodd" d="M468.985,130.983c1.727,4.09-1.125,12.185-3,15.998C460.866,143.211,469.559,136.789,468.985,130.983
			z"/>
		<path fill-rule="evenodd" d="M429.99,133.983C430.563,129.972,429.146,139.897,429.99,133.983L429.99,133.983z"/>
		<path fill-rule="evenodd" d="M259.012,136.983c11.945-0.177,17.798,19.428,15.998,32.996c-7.692-5.973-4.505-22.825-11.999-28.996
			C259.881,141.446,258.548,140.113,259.012,136.983z"/>
		<path fill-rule="evenodd" d="M260.011,140.982c2.212,9.12,8.05,14.614,7,26.997c-3.995,1.615-14.004,1.615-17.998,0
			C251.358,157.659,251.389,145.025,260.011,140.982z"/>
		<path fill-rule="evenodd" d="M423.991,141.982c1.94-0.396,1.461,4.554-1,3c0-0.667,0-1.333,0-2
			C423.842,143.166,423.935,142.592,423.991,141.982z"/>
		<path fill-rule="evenodd" d="M394.994,146.981c0.028-0.972,1.225-0.776,2-1C396.967,146.954,395.771,146.758,394.994,146.981z"/>
		<path fill-rule="evenodd" d="M390.995,148.981C389.813,152.019,385.691,147.897,390.995,148.981L390.995,148.981z"/>
		<path fill-rule="evenodd" d="M417.991,148.981c1.554,3.292-10.386,14.243-16.997,16.998c-3.419,1.424-7.841,1.153-10.999,2
			C396.251,158.57,412.051,158.705,417.991,148.981z"/>
		<path fill-rule="evenodd" d="M422.991,154.98c7.589,2.744,9.69,10.974,18.997,11.999
			C433.76,169.274,421.355,162.644,422.991,154.98z"/>
		<path fill-rule="evenodd" d="M446.988,182.977c-17.212-4.967-41.38-5.755-55.993,2c-1.916-2.417-0.631-8.035-1-11.999
			c10.76-2.905,20.097-7.233,26.997-13.999c5.191,2.349,5.243,6.865,10.998,9.999C434.783,172.679,449.135,170.002,446.988,182.977z
			"/>
		<path fill-rule="evenodd" d="M215.017,177.978c-15.785-9.737-43.303-16.177-66.992-8.999
			C164.009,153.911,209.185,162.261,215.017,177.978z"/>
		<path fill-rule="evenodd" d="M355.999,163.979c-16.953,9.376-30.578,22.082-45.994,32.996
			c4.516-16.511,27.564-23.075,40.995-33.996C352.453,163.526,356.168,161.811,355.999,163.979z"/>
		<path fill-rule="evenodd" d="M147.025,169.979c-0.658,1.342-2.137,1.862-4,2C142.019,168.971,145.254,170.207,147.025,169.979z"/>
		<path fill-rule="evenodd" d="M306.006,267.966c0.725-38.341,0.502-83.963-36.996-89.989c-7.446-1.196-13.799,2.262-20.998-2
			c13.387-8.028,43.204,0.065,50.994,8.999c9.925,11.381,9.998,35.287,9.998,58.993
			C309.005,252.325,311.452,262.667,306.006,267.966z"/>
		<path fill-rule="evenodd" d="M354,171.979c-12.404,12.26-28.482,20.845-41.995,31.996
			C322.947,190.253,335.994,178.636,354,171.979z"/>
		<path fill-rule="evenodd" d="M357.999,174.978c1.23,0.437,2.054,1.28,2,3c-17.671,10.01-32.904,27.733-47.994,36.996
			C321.359,195.665,342.832,188.474,357.999,174.978z"/>
		<path fill-rule="evenodd" d="M450.987,175.978c5.495-1.082,5.97,6.789,4,9.999C451.733,184.236,448.656,180.403,450.987,175.978z"
			/>
		<path fill-rule="evenodd" d="M216.017,195.976c-19.839,1.003-41.801,6.258-58.993,12.998c-3.98-5.694-8.77-15.881-6-24.997
			C168.699,169.345,208.069,179.218,216.017,195.976z"/>
		<path fill-rule="evenodd" d="M459.986,176.978c3.691-0.342,3.633,6.072,2,7.999C458.951,184.663,457.929,179.329,459.986,176.978z
			"/>
		<path fill-rule="evenodd" d="M467.985,177.978c4.521-0.926,3.305,7.194,2,8.999C466.655,186.712,466.018,180.445,467.985,177.978z
			"/>
		<path fill-rule="evenodd" d="M299.007,278.965c-5.231-28.346,2.913-60.945-10.999-79.99
			c-8.208-11.237-20.391-12.714-38.995-14.998c-1.701,0.368-1.886-0.78-2-2C303.815,169.544,306.135,230.791,299.007,278.965z"/>
		<path fill-rule="evenodd" d="M359.999,183.977c1.78,39.12-22.384,60.932-46.994,76.99c-0.045-12.248-3.446-25.16-1-34.996
			C314.63,215.419,349.101,188.665,359.999,183.977z"/>
		<path fill-rule="evenodd" d="M145.026,186.977c3.546,5.74,3.032,12.241,5,17.998c7.755,22.696,25.419,38.238,35.995,53.993
			c-12.52,0.504-23.07-16.774-28.996-26.997c-7.06-12.178-12.451-26.998-15.998-40.995c-0.729-2.728,1.987-2.013,2-4
			C143.693,186.977,144.359,186.977,145.026,186.977z"/>
		<path fill-rule="evenodd" d="M288.008,293.963c-4.417-36.91,8.83-91.486-22.997-100.987c-4.614-0.385-10.62,0.621-11.999-3
			c40.879-6.983,39.995,33.357,39.995,73.991C293.007,275.529,295.705,289.464,288.008,293.963z"/>
		<path fill-rule="evenodd" d="M135.027,193.976c1.615-0.282,1.722,0.945,3,1c3.111,14.631,9.578,26.032,15.998,36.996
			c6.629,11.32,14.798,20.615,20.997,31.996c-10.059-2.023-17.846-15.154-23.997-25.997
			C143.629,224.933,133.831,208.962,135.027,193.976z"/>
		<path fill-rule="evenodd" d="M282.009,257.968c-4.897-5.49-7.364-13.554-11.999-20.998c-4.33-6.954-9.095-14.042-13.999-18.998
			c-5.746-5.808-16.96-9.663-9.999-21.997C283.702,190.295,285.599,225.698,282.009,257.968z"/>
		<path fill-rule="evenodd" d="M128.028,199.975c1.615-0.282,1.721,0.945,3,1c4.92,20.382,14.92,36.62,25.997,51.993
			c3.329,4.621,8.563,8.991,7.999,14.998c-11.205-2.894-16.633-16.532-22.997-27.996
			C135.277,227.811,125.694,214.526,128.028,199.975z"/>
		<path fill-rule="evenodd" d="M454.987,218.973c3.583,12.082,9.207,22.123,15.998,30.996c-2.029,5.636-7.386,7.946-11.999,10.999
			c-25.612-9.716-47.905-22.752-83.989-21.997c-0.896-6.095,5.441-12.171,7.999-17.998
			C406.688,217.116,431.3,209.515,454.987,218.973z"/>
		<path fill-rule="evenodd" d="M266.011,289.964c-7.192-2.154-4.029-8.385-5-12.999c-4.988-23.714-18.419-48.922-41.995-53.993
			c-17.116-3.682-35.195,4.301-50.994,5.999c2.086-5.152,10.826-7.599,16.998-8.999
			C235.081,208.622,264.126,243.353,266.011,289.964z"/>
		<path fill-rule="evenodd" d="M499.981,220.972c-1.902,2.097-2.725,5.275-6.999,5c-0.658-2.103-2.646-4.445-1-5.999
			C494.386,217.688,498.028,219.802,499.981,220.972z"/>
		<path fill-rule="evenodd" d="M256.012,275.965c-14.148-10.85-26.238-22.416-47.994-21.997c-5.269,0.101-10.729,3.219-15.998,2
			c-9.641-2.23-13.684-15.128-18.998-20.997C210.406,210.849,254.019,237.099,256.012,275.965z"/>
		<path fill-rule="evenodd" d="M41.039,233.971c0.161-1.172,1.823-0.843,3-1C43.877,234.143,42.215,233.814,41.039,233.971z"/>
		<path fill-rule="evenodd" d="M46.038,234.971c0.933,1.067,3.688,0.311,3,3C48.105,236.903,45.35,237.659,46.038,234.971z"/>
		<path fill-rule="evenodd" d="M140.026,246.969c0.755,4.671-7.013,8.802-13.998,8.999
			C129.957,252.23,134.316,248.925,140.026,246.969z"/>
		<path fill-rule="evenodd" d="M157.024,268.966c-8.828,5.89-24.078,10.514-35.996,9.999c2.144-5.856,4.151-11.847,6-17.998
			c5.648-2.018,10.705-4.626,15.998-6.999C149.421,257.238,151.81,264.516,157.024,268.966z"/>
		<path fill-rule="evenodd" d="M474.984,255.968c-0.926,5.74-5.36,7.971-9.999,9.999
			C462.587,260.584,469.369,256.584,474.984,255.968z"/>
		<path fill-rule="evenodd" d="M480.983,260.967c-0.066,6.266-4.29,8.375-8.998,9.999
			C470.272,266.574,475.009,260.911,480.983,260.967z"/>
		<path fill-rule="evenodd" d="M488.982,265.967c1.842,5.068-3.063,9.633-8.998,9.999
			C478.056,270.811,482.054,265.339,488.982,265.967z"/>
		<path fill-rule="evenodd" d="M42.039,274.966c-0.125,2.208-4.241,0.424-5.999,1C36.885,274.05,40.425,273.26,42.039,274.966z"/>
		<path fill-rule="evenodd" d="M63.036,275.965c1.063-2.269,6.285-0.38,8.999-1C70.971,277.235,65.75,275.346,63.036,275.965z"/>
		<path fill-rule="evenodd" d="M75.035,276.965c3.879,0.121,9.212-1.213,7.999,4C79.747,280.252,75.509,280.491,75.035,276.965z"/>
		<path fill-rule="evenodd" d="M256.012,130.983c-7.958,18.374-14.82,46.504-16.998,73.991c-5.629-4.854-3.611-17.102-2-26.997
			C239.74,161.243,247.849,140.355,256.012,130.983z"/>
		<path fill-rule="evenodd" fill="#FFFFFF" d="M284.009,48.994c1,0,1.999,0,2.999,0c-1.035,36.144-27.448,50.704-46.994,72.991
			c-16.51,18.824-22.04,43.882-18.998,74.991c6.353-31.904,9.082-59.392,26.997-77.99c15.251-15.833,34.163-27.209,39.995-50.994
			c0.15-7.849,1.185-14.814,5.999-17.998c-1.438,18.713-6.866,32.458-14.998,43.995c-8.305,11.783-19.887,18.817-28.997,28.996
			c-14.62,16.337-24.986,47.586-20.998,76.991c5.229-4.056,2.418-8.72,3-13.999c2.29-20.782,7.465-39.436,16.998-53.993
			c6.264-9.565,16.311-15.26,22.997-22.997c13.734-15.893,23.171-35.046,28.996-59.992c3.21,32.575-21.931,54.032-36.995,74.99
			c22.456-17.539,39.733-40.257,44.994-74.99c4.842,18.397-5.955,37.375-14.998,49.994c-5.833,8.14-15.408,14.273-16.998,22.997
			c8.011,1.976,13.519-8.556,19.998-13.999c7.039-5.913,14.604-10.921,21.997-14.998c-2.575-7.432-2.957-22.362-1-30.996
			c10.411-0.418-3.364,25.826,6.999,27.997c0.645-5.426-5.418-20.811,0-27.997c5.261,5.738-1.723,23.72,7,25.997
			c4.477-4.24-2.609-21.481,2.999-26.997c5.286,3.38-1.207,18.539,4,21.998c6.928-1.404,0.194-16.47,3.999-20.998
			c5.398,3.652,0.333,10.009,3,15.998c10.87-2.128,13.162-12.834,22.997-15.998c-16.775,33.552-68.866,31.789-83.989,66.992
			c12.568-6.728,22.657-19.968,36.995-27.997c9.879-5.532,20.652-8.618,29.996-14.998c9.334-6.373,16.295-13.507,24.997-19.998
			c-0.771,7.683-9.05,12.257-14.998,16.998c-21.646,17.251-57.177,26.823-72.991,51.994c8.433-3.515,14.7-9.971,22.997-14.999
			c8.627-5.228,18.19-8.067,26.997-12.998c17.552-9.829,29.822-24.405,43.994-35.996c-16.044,38.282-68.588,40.064-90.988,71.991
			c12.681-4.041,17.3-16.741,29.996-21.997c4.998-2.069,11.363-1.191,16.998-3c23.198-7.446,34.854-32.811,53.993-42.995
			c-7.732,14.932-22.581,22.747-32.996,34.996c-0.178,3.511,3.377,3.289,3.999,5.999c14.331-15.333,27.639-31.688,46.994-41.995
			c-11.677,17.986-33.958,25.368-41.994,46.994c7.065-0.101,9.93-9.064,13.998-13.998c8.698-10.552,19.151-21.019,31.996-27.997
			c-4.252,10.041-14.875,14.701-21.997,21.997c-7.44,7.622-14.669,16.313-17.998,27.997c6.408-1.079,7.74-9.742,11.998-14.998
			c8.657-10.687,20.645-21.184,29.997-26.997c-0.475,3.141,1.247,4.085,2.999,4.999c-9.949,19.714-28.775,30.55-37.995,50.994
			c30.181,4.798,33.006-40.272,49.994-51.993c-5.874,14.458-12.854,27.808-19.998,40.995c6.699-2.213,11.513-10.437,15.998-17.998
			c4.443-7.49,5.86-17.86,12.999-21.998c-7.611,24.228-20.666,45.067-39.995,57.993c-4.015,2.685-11.731,2.555-12.999,8.999
			c21.699-0.935,33.242-18.002,42.995-34.996c5.543-9.658,8.241-21.625,16.998-27.997c-0.303,8.697-6.883,11.116-6.999,19.998
			c7.623-3.708,7.102-15.562,14.998-18.998c-1.658,13.388-13.544,25.083-18.998,37.996c2.132,5.533,7.675,7.657,12.998,9.999
			c6.834-7.499,5.718-22.946,15.998-26.997c-0.601,8.166-9.249,16.672-9.998,27.997c9.065-1.828,6.633-20.378,14.998-24.997
			c3.14-1.734,5.505,3.771,9.998,0c-0.574,7.864-9.838,15.413-9.998,26.997c13.167-2.164,6.793-23.869,19.997-25.997
			c-2.289,9.042-7.762,14.902-9.999,23.997c7.055,4.526,19.914-4.507,26.997-3c-18.843,14.36-57.906,11.28-74.99-2
			c-0.16,8.419,12.142,13.999,19.997,15.998c18.148,4.619,42.337-0.438,56.993-6.999c-8.561,11.962-29.825,14.126-48.994,11.998
			c-14.756-1.638-24.932-11.061-34.996-13.998c9.311,27.529,64.38,19.897,89.989,11.999c-5.355,9.732-26.178,7.898-35.995,9.999
			c11.352,6.733,28.325-2.756,37.995-1c-7.307,11.024-34.547,2.115-43.995,10.999c2.217,18.654,34.19,4.112,41.995,4
			c-24.047,22.776-66.134-1.113-96.988-1c-10.362,0.038-25.132,1.776-28.996,12.999c11.678-0.854,19.177-5.577,30.996-6
			c31.792-1.136,70.449,21.422,96.988,3c-1.016,7.958-17.385,10.468-25.997,10.999c-32.856,2.023-75.391-21.193-103.987-1
			c6.291,5.343,10.304,0.021,15.998-1c34.421-6.173,81.692,16.268,114.986,0c-4.794,11.157-30.156,11.201-50.994,8.999
			c-19.929-2.106-40.905-8.098-58.992-5.999c-8.603,0.998-20.013,3.34-23.997,10.999c15.893,0.664,29.982-8.27,51.993-5
			c22.051,3.276,48.965,6.627,67.991,5c12.366-1.058,17.192-9.372,26.997-13.999c-5.59,16.074-28.822,14.506-34.996,29.997
			c14.216-1.482,25.439-19.847,39.995-20.998c-9.874,11.79-28.401,14.927-35.995,28.997c13.022-2.088,21.938-18.94,37.995-21.998
			c-8.603,11.395-25.44,14.555-31.996,27.997c7.373,1.76,11.905-6.232,16.998-9.999c5.487-4.058,10.883-8.449,17.998-9.999
			c-3.491,9.235-21.683,12.268-25.997,23.997c5.701,5.964,19.536,3.794,28.996,5.999c-6.557,8.09-19.791-0.962-28.996,0
			c-5.736-4.595-11.222-6.086-15.998-10.999c-7.72-7.939-8.193-21.445-18.998-25.997c-1.746,6.553,4.426,12.017,7.999,16.998
			c11.473,15.988,29.537,29.359,55.993,27.996c-1.618,5.607-19.895,2.177-23.997,1c-7.141-2.049-17.195-7.393-22.997-11.999
			c-11.921-9.462-16.434-24.792-25.996-33.996c-0.017,11.476,8.543,23.687,16.997,31.996c8.928,8.773,24.596,18.06,37.996,19.998
			c4.613,0.667,13.879-2.835,16.997,3c-32.74,2.761-57.663-15.738-70.991-36.996c-3.71-5.917-3.83-16.258-11.998-17.998
			c1.223,13.179,8.856,25.476,16.998,33.996c12.313,12.887,30.149,22.461,52.993,25.997c3.534,0.547,10.481-0.792,12.998,4
			c-21.284,1.287-34.688-5.306-47.994-11.999c-3.555,1.444-5.948,4.05-7.998,6.999c8.093,14.571,32.643,12.684,51.993,15.998
			c-43.632,10.067-66.63-24.801-99.987-37.995c-21.608-8.546-45.091-14.743-77.99-11.998c-2.856,3.81-6.808,6.524-7.999,11.998
			c17.917-4.311,45.404-9.631,65.991-3c13.871,4.468,27.624,11.475,39.995,17.998c23.824,12.563,38.647,35.509,81.99,30.996
			c-5.903,5.188-17.953,3.641-28.997,2c-21.834-3.243-33.874-16.657-51.993-26.997c-23.268-13.277-53.271-29.913-90.988-20.998
			c-26.824,6.34-55.981,28.521-63.992,53.993c-5.759,18.31-0.955,41.531-2,63.992c-1.85,39.768,2.621,83.062-1,118.985
			c-5.459-0.483-2.889-7.389-2.999-9.999c-1.559-36.613,1.284-83.275,0-121.984c-0.688-20.736-1.366-45.498,5.999-60.992
			c9.206-19.368,29.226-29.066,42.994-45.995c15.721-19.329,36.024-51.539,25.997-89.989c-4.429-16.984-15.13-34.115-27.996-44.994
			c1.691,9.577,10.396,15.296,14.998,23.997c6.954,13.151,12.555,31.306,9.998,53.994c-2.736,24.289-15.389,45.567-27.996,58.992
			c-14.44,15.377-45.224,27.415-47.994,54.993c-5.582,55.568,4.977,120.877-1,181.978c-5.416-2.347-2.999-13.624-2.999-20.997
			c0-22.069,0-45.118,0-68.992c0-30.393-3.646-62.969,0-91.988c3.639-28.956,32.953-39.692,49.993-58.992
			c9.588-10.859,13.226-21.214,20.998-32.996c1.358-13.767,7.224-26.031,5.999-39.995c-2.129-24.26-14.623-46.233-29.996-56.993
			c0.623,8.72,7.66,15.289,11.998,21.997c9.056,14.003,18.505,37.482,11.999,62.992c-11.421,44.781-62.729,54.001-74.991,100.988
			c-4.848,18.577-0.016,47.453,0,68.991c0.026,35.218-0.33,71.787-2.999,115.985c-0.71-50.145-2-115.225-2-171.979
			c0-15.372,1.857-31.104,0-44.995c-2.383-17.816-19.33-45.845-30.996-56.993c-22.99-21.968-64.779-24.387-91.989-4
			c9.747,1.046,21.321-7.503,34.996-8.999c44.853-4.906,67.885,27.185,80.99,58.993c1.531,3.716,2.904,10.227,3,15.998
			c1.018,61.239,0.837,149.236-2,211.974c-5.082-1.204-1.94-8.905-2-11.999c-0.741-38.408-1-92.341-1-137.982
			c0-23.555,2.768-46.543,0-67.991c-3.388-26.255-30.071-61.516-58.993-64.992c-19.228-2.311-36.908,1.77-51.994,11.999
			c18.966-2.203,39.59-12.94,62.992-5c23.034,7.815,40.891,34.676,43.995,67.992c2.828,30.353,0,68.451,0,104.986
			c0,37.773,1.589,74.838-2,102.987c-1.592-26.993-2.094-65.925-2-104.987c0.099-40.856,4.68-83.046-10.999-104.986
			c-11.392-15.942-28.446-28.231-57.993-23.997c-24.011,11.651-52.583,18.742-78.99,27.996c15.568,1.825,34.301-5.728,48.994-11.998
			c8.835-3.771,18.749-11.418,30.996-12.999c32.547-4.2,58.937,17.952,62.992,45.995c4.111,28.432,0,62.049,0,93.988
			c0,30.933,1.643,62.182-2,90.988c-6.44-57.273,5.542-127.95-2-183.978c-3.998-29.695-34.679-50.571-66.992-40.995
			c-15.887,4.708-31.74,15.835-48.994,20.998c-9.303,2.783-18.378,1.22-26.997,5.999c35.956,8.979,60.398-28.546,96.988-23.997
			c24.061,2.991,35.9,21.515,44.994,41.995c-2.788,54.645,0.869,126.717-2,179.978c-5.463-2.402-3-13.042-3-19.998
			c0-33.154,1.514-61.442,0-93.987c-1.026-22.046,3.094-45.67,0-64.992c-3.795-23.701-25.643-41.665-52.994-38.995
			c-19.021,1.856-38.622,18.057-57.993,22.997c-4.704,1.199-10.049,2.498-13.998,2.999c-8.646,1.098-18.715-4.46-20.998,5
			c45.715,11.818,63.56-29.833,103.987-25.997c15.335,1.455,32.562,15.822,35.996,31.996c1.427,6.722-0.326,14.829,0,21.997
			c2.326,51.207,1.26,108.469-1,158.98c-5.407-2.008-3-13.161-3-19.998c0-36.89,0-77.002,0-112.985c0-15.432,2.322-32.05,0-44.994
			c-2.77-15.446-18.884-33.354-40.995-30.996c-24.138,2.572-42.822,24.484-72.991,26.996c-8.915,0.742-19.604-2.666-27.997-1
			c-7.391,1.468-16.045,11.011-25.997,14.998c-13.367,5.357-27.959,10.106-45.994,7.999c38.237-6.338,71.694-17.923,86.989-48.993
			c2.83-5.749,8.574-14.124,5-20.998c-12.108,37.891-41.933,63.38-90.989,60.993c41.262-7.066,78.038-18.617,83.989-60.993
			c-7.312,1.833-4.951,8.429-6.999,12.998c-11.055,24.666-43.808,42.504-74.991,39.996c3.355-5.363,11.423-2.314,15.998-3
			c28.877-4.328,50.811-23.922,57.993-49.994c-6.947-3.72-8.055,4.641-8.999,9.999c-12.104,19.593-34.665,39.28-63.992,34.996
			c7.867-4.465,23.166-1.498,27.997-8.999c-11.18-4.643-27.587,4.132-34.996,0c9.844-7.72,32.833-3.364,45.994-5
			c-8.397-11.852-39.424-0.252-49.994-4.999c10.645-4.704,32.2-5.174,45.994-3c5.024,0.792,10.724,5.564,12.999,0
			c-11.874-12.157-43.454-4.446-60.993-5.999c0.667-6.666,14.573-0.092,16.998-4.999c-3.871-5.223-15.921,2.811-19.998-3
			c0.08-5.585,10.167-1.165,12.999-4c0.502-6.521-10.498-6.806-7.999-11.999c8.367,1.298,9.205,10.126,16.998,11.999
			c2.098-6.449-8.847-8.471-9.999-14.998c8.977-0.538,11.621,13.63,20.998,15.998c3.391-8.622-14.355-11.898-15.998-21.997
			c11.351,4.981,16.338,16.325,26.997,21.997c1.132-12.806-21.777-15.543-20.998-27.997c17.45,9.88,23.183,31.478,47.994,33.996
			c4.833-1.5,6.347-6.318,6.999-11.999c-1.424-3.575-5.545-4.454-10.999-4c-22.227-9.103-43.739-18.92-57.993-35.996
			c6.301-5.83,12.23,0.062,17.998,4c13.772,9.403,36.489,22.312,55.993,24.997c14.623,2.013,37.624,0.775,37.995-12.999
			c-7.393-0.35-11.569,6.708-18.998,7.999c-4.839,0.841-11.342,0.575-15.998,0c-25.927-3.203-52.912-21.086-66.992-32.996
			c5.762-0.687,14.401,6.493,21.998,10.999c7.641,4.533,16.191,10.071,23.997,12.999c16.296,6.111,44.802,10.387,51.993-7.999
			c-10.311,1.189-16.286,8.853-32.996,6.999c-11.56-1.282-22.667-7.223-32.996-12.998c-10.452-5.844-21.881-11.215-25.997-18.998
			c21.809,11.825,63.506,44.377,87.989,17.998c-1.472-7.194-4.357-12.974-5.999-19.998c-26.909,5.013-58.612,0.834-76.991-8.999
			c14.79-1.043,30.736,7.953,51.994,7.999c4.758,0.011,10.068-0.354,13.999-1c25.872-4.25,31.068-27.414,58.992-28.997
			c16.683-0.946,30.449,7.923,44.995,13.998c-6.671-10.361-22.033-15.353-34.996-16.998c-32.822-4.167-37.532,18.402-61.992,23.997
			c-6.967,1.593-16.255,2.849-22.997,3c-14.144,0.316-31.779-2.233-42.995-11.999c23.297,8.444,72.373,13.504,84.989-7.999
			c-7.985,4.346-16.438,8.225-25.997,10.999c-22.315-0.015-45.802,1.141-54.993-11.999c17.346,5.261,29.69,9.997,44.994,8.999
			c25.87-1.688,41.733-23.923,63.992-26.997c17.709-2.445,29.635,4.521,44.994,8.999c-9.926-11-29.171-14.778-47.994-11.999
			c-27.758,4.099-59.541,37.78-98.988,15.998c0.871-6.468,5.004,0.704,9.999-1c-2.239-7.76-12.687-7.311-12.998-16.998
			c11.734,5.931,17.266,18.063,32.996,19.998c-3.442-10.636-26.878-15.036-28.996-26.997c14.276,7.414,27.094,21.531,40.995,25.997
			c-6.366-11.968-27.561-17.765-34.996-31.996c13.895,5.468,25.492,21.812,41.995,27.997c-1.788-17.243-27.615-19.021-34.996-33.996
			c12.037,3.961,18.486,13.51,29.997,17.998c-0.726-10.689-11.736-16.148-7.999-27.997c3.573,4.024,5.631,9.845,7.999,14.999
			c4.303,9.365,6.738,18.956,11.999,28.996c11.632-2.915,2.04-16.299-1-22.997c-3.967-8.741-10.378-17.467-9.999-23.997
			c11.421,9.244,13.389,27.94,21.998,39.995c3.926-15.724-12.973-32.906-14.998-45.994c13.017,9.313,15.349,29.312,21.997,44.994
			c7.285-16.976-9.12-34.375-13.999-48.994c13.355,8.975,16.582,28.079,21.998,44.994c7.038-3.627,19.219-2.112,24.997-6.999
			c-0.852-7.278-9.347-6.383-13.998-8.999c-12.251-6.89-24.852-22.339-27.997-36.995c5.232,3.015,6.628,9.288,9.999,13.998
			c3.172,4.433,7.437,8.156,9.999,12.999c6.95,3.049,11.276,8.721,19.998,9.999c1.617-7.119-6.271-6.516-9.999-8.999
			c-10.814-7.202-22.304-19.269-22.998-32.996c4.758-1.091,4.081,3.252,4,6.999c2.26-2.073-0.006-8.672,3-9.999
			c4.797,12.201,11.829,22.167,24.997,25.997c2.144-12.924-23.517-11.697-16.998-28.996c4.628,6.037,5.223,16.108,15.998,15.998
			c1.675-5.862-3.642-18.211,0-25.997c8.524,17.472,1.992,50.001,9.999,67.992c6.399-6.595,1.675-19.093,1-28.997
			c-0.999-14.636-5.794-29.913-2-41.995c4.275,21.722,7.118,44.875,8.999,68.991c5.068-25.754-4.711-50.588-3-72.991
			c6.195,14.406,7.999,36.848,7.999,59.993c0,5.549-2.392,13.961,3,16.998c5.455-4.195,3-13.494,3-19.998
			c0-21.902-5.466-40.544-5-57.993c5.458,4.634,3.21,13.697,5,20.998c3.32,13.545,6.07,38.198,3,57.993
			c5.67,4.329,11.377,8.621,18.998,10.999c4.929-15.736,9.419-31.909,18.998-42.995c-13.904-13.426-27.361-27.298-35.996-45.994
			c4.357-1.357,3.617,2.382,5.999,3c4.021-1.873-4.021-5.125,0-6.999c6.258,3.342,8.306,11.367,12.999,16.998
			c7.586,9.103,16.48,19.357,27.997,21.997c-11.323-14.342-30.337-26.32-34.996-43.995c14.418,12.245,21.024,32.303,40.995,38.995
			c-1.978-7.957-10.975-13.203-16.998-19.998c-6.134-6.919-12.73-13.956-15.998-22.997c10.284,3.714,11.047,16.949,20.997,20.998
			c2.867-5.465-0.897-17.563,2-22.997c9.834,2.878-3.895,29.069,6.999,32.996c2.764-9.731-5.235-25.879,0-34.996
			c3.637,2.695,1.543,11.122,3,15.998c5.712-2.287-0.179-16.177,6-17.998c8.578,10.486-9.26,31.4-1,41.995
			c14.302-7.009-1.188-35.343,7.999-44.994c2.885,8.78-0.886,24.216,2,32.996C278.033,77.681,280.866,63.183,284.009,48.994z
			 M241.014,114.985c-2.594-6.371-10.38-10.902-15.998-16.998c-5.854-6.353-11.313-13.367-16.998-18.998
			C215.775,94.23,224.578,108.424,241.014,114.985z M383.996,129.984c9.512-10.153,18.619-20.709,26.996-31.996
			C401.311,103.31,386.548,117.531,383.996,129.984z M168.023,128.984c-6.889-10.109-19.828-14.168-26.997-23.997
			C146.421,115.967,156.668,127.282,168.023,128.984z M354,117.985c9.323,14.468,24.511,32.921,26.996,55.993
			c2.84,26.356-6.544,45.88-14.998,64.992c31.389-28.104,23.095-107.682-11.998-124.984C354.09,116.714,352.334,115.999,354,117.985
			z M439.989,121.985C442.451,115.769,436.855,118.688,439.989,121.985L439.989,121.985z M288.008,158.98
			c0.912,5.232-1.6,14.322,4.999,16.998c1.042-21.735-5.043-44.929-21.997-51.994C277.853,133.674,285.477,144.455,288.008,158.98z
			 M330.003,123.984c-9.67-1.582-33.75,18.928-34.996,27.997c-0.365,2.658,2.552,9.496,3,15.998
			c0.883,12.811,1.874,18.139,9.999,20.998c11.937-14.06,31.583-20.41,44.994-32.996
			C347.798,148.158,339.851,125.595,330.003,123.984z M471.985,127.984C471.14,133.898,472.558,123.973,471.985,127.984
			L471.985,127.984z M267.011,128.984c-1.376-0.043-2.196,0.471-3,1c4.723,8.417,12.606,15.653,14.999,26.997
			c1.086,5.154-1.996,12.807,5,14.998C286.578,153.367,278.792,136.565,267.011,128.984z M237.014,177.978
			c-1.611,9.896-3.629,22.143,2,26.997c2.178-27.487,9.04-55.617,16.998-73.991C247.849,140.355,239.74,161.243,237.014,177.978z
			 M465.985,146.981c1.875-3.813,4.727-11.908,3-15.998C469.559,136.789,460.866,143.211,465.985,146.981z M429.99,133.983
			C429.146,139.897,430.563,129.972,429.99,133.983L429.99,133.983z M249.013,167.979c3.994,1.615,14.003,1.615,17.998,0
			c1.051-12.383-4.787-17.877-7-26.997C251.389,145.025,251.358,157.659,249.013,167.979z M263.011,140.982
			c7.494,6.171,4.307,23.023,11.999,28.996c1.8-13.567-4.053-33.173-15.998-32.996C258.548,140.113,259.881,141.446,263.011,140.982
			z M422.991,142.982c0,0.667,0,1.333,0,2c2.461,1.555,2.94-3.396,1-3C423.935,142.592,423.842,143.166,422.991,142.982z
			 M396.994,145.982c-0.775,0.224-1.972,0.027-2,1C395.771,146.758,396.967,146.954,396.994,145.982z M390.995,148.981
			C385.691,147.897,389.813,152.019,390.995,148.981L390.995,148.981z M389.995,167.979c3.158-0.847,7.58-0.576,10.999-2
			c6.611-2.755,18.551-13.706,16.997-16.998C412.051,158.705,396.251,158.57,389.995,167.979z M441.988,166.979
			c-9.307-1.025-11.408-9.255-18.997-11.999C421.355,162.644,433.76,169.274,441.988,166.979z M427.99,168.979
			c-5.755-3.134-5.807-7.65-10.998-9.999c-6.9,6.766-16.237,11.093-26.997,13.999c0.369,3.964-0.916,9.582,1,11.999
			c14.613-7.755,38.781-6.967,55.993-2C449.135,170.002,434.783,172.679,427.99,168.979z M148.025,168.979
			c23.689-7.178,51.207-0.739,66.992,8.999C209.185,162.261,164.009,153.911,148.025,168.979z M351,162.979
			c-13.431,10.921-36.479,17.485-40.995,33.996c15.416-10.915,29.041-23.62,45.994-32.996
			C356.168,161.811,352.453,163.526,351,162.979z M143.026,171.979c1.862-0.138,3.342-0.658,4-2
			C145.254,170.207,142.019,168.971,143.026,171.979z M309.005,243.97c0-23.706-0.073-47.612-9.998-58.993
			c-7.79-8.934-37.607-17.027-50.994-8.999c7.199,4.261,13.552,0.803,20.998,2c37.498,6.025,37.72,51.647,36.996,89.989
			C311.452,262.667,309.005,252.325,309.005,243.97z M312.005,203.975c13.513-11.151,29.591-19.736,41.995-31.996
			C335.994,178.636,322.947,190.253,312.005,203.975z M312.005,214.973c15.09-9.263,30.323-26.986,47.994-36.996
			c0.054-1.72-0.77-2.563-2-3C342.832,188.474,321.359,195.665,312.005,214.973z M454.987,185.977c1.97-3.209,1.495-11.081-4-9.999
			C448.656,180.403,451.733,184.236,454.987,185.977z M151.025,183.977c-2.771,9.115,2.019,19.302,6,24.997
			c17.192-6.74,39.153-11.995,58.993-12.998C208.069,179.218,168.699,169.345,151.025,183.977z M461.986,184.977
			c1.633-1.927,1.691-8.341-2-7.999C457.929,179.329,458.951,184.663,461.986,184.977z M469.985,186.977
			c1.305-1.805,2.521-9.925-2-8.999C466.018,180.445,466.655,186.712,469.985,186.977z M247.013,181.977c0.113,1.22,0.299,2.368,2,2
			c18.604,2.284,30.787,3.761,38.995,14.998c13.912,19.045,5.768,51.644,10.999,79.99
			C306.135,230.791,303.815,169.544,247.013,181.977z M312.005,225.972c-2.446,9.836,0.955,22.748,1,34.996
			c24.61-16.059,48.774-37.87,46.994-76.99C349.101,188.665,314.63,215.419,312.005,225.972z M143.026,186.977
			c-0.013,1.987-2.728,1.271-2,4c3.547,13.998,8.938,28.817,15.998,40.995c5.926,10.222,16.477,27.5,28.996,26.997
			c-10.576-15.755-28.24-31.297-35.995-53.993c-1.967-5.757-1.453-12.258-5-17.998C144.359,186.977,143.693,186.977,143.026,186.977
			z M293.007,263.967c0-40.634,0.885-80.974-39.995-73.991c1.379,3.621,7.385,2.615,11.999,3
			c31.827,9.501,18.58,64.077,22.997,100.987C295.705,289.464,293.007,275.529,293.007,263.967z M151.025,237.97
			c6.151,10.843,13.938,23.974,23.997,25.997c-6.199-11.381-14.368-20.675-20.997-31.996c-6.42-10.964-12.887-22.364-15.998-36.996
			c-1.278-0.055-1.385-1.282-3-1C133.831,208.962,143.629,224.933,151.025,237.97z M246.013,195.976
			c-6.961,12.334,4.252,16.189,9.999,21.997c4.903,4.956,9.669,12.043,13.999,18.998c4.634,7.444,7.102,15.508,11.999,20.998
			C285.599,225.698,283.702,190.295,246.013,195.976z M142.026,239.97c6.364,11.464,11.792,25.102,22.997,27.996
			c0.564-6.007-4.67-10.377-7.999-14.998c-11.077-15.374-21.077-31.611-25.997-51.993c-1.278-0.055-1.384-1.282-3-1
			C125.694,214.526,135.277,227.811,142.026,239.97z M382.996,220.972c-2.558,5.827-8.896,11.903-7.999,17.998
			c36.084-0.755,58.377,12.281,83.989,21.997c4.613-3.053,9.97-5.362,11.999-10.999c-6.791-8.874-12.415-18.914-15.998-30.996
			C431.3,209.515,406.688,217.116,382.996,220.972z M185.021,219.973c-6.172,1.399-14.912,3.847-16.998,8.999
			c15.799-1.698,33.878-9.681,50.994-5.999c23.575,5.071,37.006,30.279,41.995,53.993c0.971,4.614-2.192,10.844,5,12.999
			C264.126,243.353,235.081,208.622,185.021,219.973z M491.982,219.973c-1.646,1.554,0.342,3.896,1,5.999
			c4.274,0.275,5.097-2.902,6.999-5C498.028,219.802,494.386,217.688,491.982,219.973z M173.022,234.971
			c5.314,5.869,9.356,18.767,18.998,20.997c5.269,1.22,10.729-1.898,15.998-2c21.755-0.418,33.846,11.147,47.994,21.997
			C254.019,237.099,210.406,210.849,173.022,234.971z M44.039,232.971c-1.177,0.157-2.838-0.172-3,1
			C42.215,233.814,43.877,234.143,44.039,232.971z M49.038,237.97c0.689-2.688-2.067-1.933-3-3
			C45.35,237.659,48.105,236.903,49.038,237.97z M123.028,256.968c-28.898,1.432-51.59-9.828-72.991-18.998
			C66.33,251.637,96.824,262.625,123.028,256.968z M126.028,255.968c6.985-0.196,14.753-4.328,13.998-8.999
			C134.316,248.925,129.957,252.23,126.028,255.968z M143.026,253.968c-5.293,2.373-10.35,4.981-15.998,6.999
			c-1.849,6.151-3.856,12.142-6,17.998c11.918,0.515,27.168-4.109,35.996-9.999C151.81,264.516,149.421,257.238,143.026,253.968z
			 M464.985,265.967c4.639-2.028,9.073-4.259,9.999-9.999C469.369,256.584,462.587,260.584,464.985,265.967z M471.985,270.966
			c4.708-1.625,8.932-3.733,8.998-9.999C475.009,260.911,470.272,266.574,471.985,270.966z M479.984,275.965
			c5.936-0.365,10.84-4.93,8.998-9.999C482.054,265.339,478.056,270.811,479.984,275.965z M36.04,275.965
			c1.758-0.575,5.875,1.208,5.999-1C40.425,273.26,36.885,274.05,36.04,275.965z M72.035,274.966c-2.714,0.619-7.936-1.27-8.999,1
			C65.75,275.346,70.971,277.235,72.035,274.966z M83.034,280.965c1.213-5.213-4.12-3.879-7.999-4
			C75.509,280.491,79.747,280.252,83.034,280.965z"/>
		<path fill-rule="evenodd" d="M50.038,237.97c21.4,9.169,44.092,20.429,72.991,18.998C96.824,262.625,66.33,251.637,50.038,237.97z
			"/>
		<path fill-rule="evenodd" fill="#FFFFFF" d="M540.977,310.961c-8.365,5.307-28.766,2.756-40.995-1
			c-34.195-10.502-52.773-42.581-93.988-44.994c48.671,14.81,73.085,58.687,137.982,53.993c-10.293,5.67-29.989,2.65-41.994,0
			c-44.815-9.892-60.599-52.144-115.985-49.994c-14.709,0.571-27.964,6.652-36.996,14.999
			c-10.269,9.488-24.702,25.711-27.996,36.995c-4.472,15.318-0.269,36.256,0,52.993c0.65,40.594-0.725,82.008-1,118.985
			c-6.807-3.463-3.999-13.017-3.999-18.998c0-21.329,0.999-42.649,0.999-64.991c0-28.425-6.81-67.927,1-89.989
			c9.867-27.874,36.874-49.82,68.991-54.993c-27.549-4.488-41.227,11.675-54.992,26.997c-7.433,8.272-18.184,18.593-19.998,27.996
			c-2.426,12.569,0,28.972,0,43.995c0,42.224,0.82,89.2-1,129.983c-3.634-40.535-2-87.871-2-132.983c0-15.188-2.362-31.535,0-43.994
			c2.842-14.981,35.313-48.708,49.994-53.994c15.794-5.686,45.073-4.328,62.992,0c16.575,4.003,30.311,17.614,43.994,26.997
			C485.979,302.672,507.371,310.904,540.977,310.961z"/>
	</g>
</g>
</svg>
